<?xml version="1.0" encoding="utf-8"?>
<!-- Generator: Adobe Illustrator 16.0.4, SVG Export Plug-In . SVG Version: 6.00 Build 0)  -->
<!DOCTYPE svg PUBLIC "-//W3C//DTD SVG 1.1//EN" "http://www.w3.org/Graphics/SVG/1.1/DTD/svg11.dtd">
<svg version="1.1" id="Layer_1" xmlns:sketch="http://www.bohemiancoding.com/sketch/ns"
	 xmlns="http://www.w3.org/2000/svg" xmlns:xlink="http://www.w3.org/1999/xlink" x="0px" y="0px" width="26.375px" height="24px"
	 viewBox="0 0 26.375 24" enable-background="new 0 0 26.375 24" xml:space="preserve">
<title></title>
<desc></desc>
<g id="miu">
	<g id="Artboard-1" transform="translate(-322.000000, -263.000000)">
		<g id="slice" transform="translate(215.000000, 119.000000)">
		</g>
		<path id="editor-folder-glyph" d="M344.998,285c0.553,0,1.002-0.449,1.002-1.008v-12.985c0-0.556-0.439-1.007-1.002-1.007h-19.996
			c-0.554,0-1.002,0.449-1.002,1.007v12.985c0,0.557,0.439,1.008,1.002,1.008H344.998z M345,269v-2.001
			c0-0.552-0.447-0.999-0.998-0.999H332v-1c0-0.552-0.438-1-1.003-1h-4.994c-0.554,0-1.003,0.444-1.003,1v4H345z"/>
	</g>
</g>
<g>
	<g>
		<line fill="none" stroke="#FFFFFF" stroke-miterlimit="10" x1="12.438" y1="16" x2="12.438" y2="10.544"/>
		<g>
			<polygon fill="#FFFFFF" points="13.684,10.909 12.438,8.75 11.191,10.909 			"/>
		</g>
	</g>
</g>
<g>
	<g>
		<line fill="none" stroke="#FFFFFF" stroke-miterlimit="10" x1="12.438" y1="16" x2="17.894" y2="16"/>
		<g>
			<polygon fill="#FFFFFF" points="17.528,17.246 19.688,16 17.528,14.754 			"/>
		</g>
	</g>
</g>
<g>
	<g>
		<line fill="none" stroke="#FFFFFF" stroke-miterlimit="10" x1="12.438" y1="16" x2="9.938" y2="18.097"/>
		<g>
			<polygon fill="#FFFFFF" points="9.416,16.907 8.562,19.25 11.018,18.817 			"/>
		</g>
	</g>
</g>
</svg>
